<svg version="1.1" id="Layer_1" xmlns="http://www.w3.org/2000/svg" xmlns:xlink="http://www.w3.org/1999/xlink" x="0px" y="0px"
	 width="100%" viewBox="0 0 800 800" enable-background="new 0 0 800 800" xml:space="preserve">
<path fill="#000000" opacity="1.000000" stroke="none" 
	d="
M445.557739,477.650330 
	C447.153412,464.002380 448.701385,450.800751 450.240479,437.598114 
	C450.413483,436.113861 450.496277,434.618530 450.690582,433.137451 
	C451.112885,429.918213 450.801056,426.951752 447.162720,425.855743 
	C443.659729,424.800568 443.128510,428.183044 441.950897,430.053680 
	C418.609222,467.131439 395.376923,504.278046 372.072418,541.379211 
	C367.559753,548.563416 361.352631,553.461182 352.892303,555.493958 
	C346.611481,557.002930 341.328217,555.404846 336.720673,551.287109 
	C323.303864,539.296509 309.929382,527.257568 296.629059,515.138062 
	C289.228149,508.394196 288.109161,498.477631 293.136688,488.562653 
	C297.276672,480.398041 304.720703,475.870117 311.914062,471.064941 
	C347.793884,447.097137 383.701508,423.170959 419.600250,399.231476 
	C421.475983,397.980621 423.906219,397.248718 422.691589,393.967468 
	C421.507294,390.767975 420.759857,387.470398 416.346405,387.519257 
	C409.350922,387.596680 402.354767,387.614899 395.358826,387.648712 
	C354.872009,387.844513 314.383972,388.410980 273.900635,387.385223 
	C267.884705,387.232788 262.551880,384.922150 257.786133,381.336670 
	C250.492294,375.849121 247.988068,368.583313 250.328094,359.736053 
	C254.410233,344.302246 259.035950,328.990723 262.488556,313.418365 
	C265.503876,299.818268 275.663422,297.186249 285.336578,297.341675 
	C292.560059,297.457764 298.898926,300.508240 305.310608,303.249481 
	C331.036163,314.248138 356.933533,324.874756 382.387939,336.471771 
	C438.041656,361.827637 472.107605,404.625458 483.237701,464.908875 
	C487.607269,488.575470 490.578339,512.503479 494.025421,536.335693 
	C495.540253,546.809021 490.035461,556.225647 480.333130,560.454041 
	C472.090027,564.046448 463.698914,567.325134 455.596375,571.208252 
	C441.468933,577.978760 435.271759,567.549194 436.281281,556.804993 
	C438.751740,530.511963 442.358185,504.325653 445.557739,477.650330 
z"/>
<path fill="#000000" opacity="1.000000" stroke="none" 
	d="
M484.232117,381.741943 
	C462.885040,355.554077 449.900269,326.124908 445.539459,292.913544 
	C443.810242,279.744202 441.796448,266.612213 439.902710,253.464569 
	C439.476227,250.503647 439.791931,247.697815 442.298553,245.758926 
	C444.828552,243.801987 447.791016,244.024139 450.304657,245.582779 
	C458.787415,250.842651 467.433258,255.918564 475.430603,261.854492 
	C480.752319,265.804504 482.546295,271.745728 481.729187,278.747284 
	C479.476013,298.054565 477.774017,317.425720 475.709473,336.756165 
	C475.461945,339.073883 476.447205,340.225281 478.126495,341.135010 
	C480.280670,342.301971 481.097687,340.467377 482.002533,339.138245 
	C489.404816,328.264282 496.790314,317.378845 504.154144,306.478790 
	C508.132629,300.589844 512.787903,300.177185 516.733765,306.176910 
	C521.755676,313.812744 526.360168,321.772247 530.514465,329.913757 
	C533.764465,336.283020 532.434631,339.765808 526.668518,344.015778 
	C517.689453,350.633850 508.705139,357.244812 499.715179,363.848114 
	C497.682343,365.341278 495.540558,366.614868 496.601990,369.854462 
	C497.664093,373.095978 500.213745,372.769379 502.685059,372.890961 
	C514.816528,373.487885 526.943970,374.190308 539.080750,374.642426 
	C543.510986,374.807434 546.678589,376.803741 547.812378,380.794159 
	C550.820190,391.379639 551.943176,402.314117 552.127014,413.274017 
	C552.205505,417.957245 548.448181,420.583252 544.276917,418.926666 
	C528.252075,412.562622 511.265106,408.070496 498.126709,395.873810 
	C493.363434,391.451935 488.612213,387.034210 484.232117,381.741943 
z"/>
<path fill="#000000" opacity="1.000000" stroke="none" 
	d="
M384.491394,303.501526 
	C370.488556,288.298309 356.714996,273.362762 342.963074,258.407227 
	C340.016602,255.202850 337.362152,251.807739 336.222595,247.465012 
	C334.542358,241.061905 337.217407,235.952621 343.689026,234.614777 
	C354.914093,232.294250 366.158936,229.729721 377.528503,228.553528 
	C386.925323,227.581421 393.504333,233.465210 397.922852,241.295685 
	C404.140015,252.313690 410.005035,263.531128 415.975739,274.687347 
	C424.930969,291.420227 433.857605,308.168488 442.775787,324.921143 
	C447.338409,333.491943 446.638092,336.383911 438.718933,342.094543 
	C437.638397,342.873749 436.545776,343.636169 435.459259,344.407104 
	C429.631927,348.542053 426.041748,348.336731 421.039856,342.993469 
	C408.862549,329.985077 396.823242,316.847534 384.491394,303.501526 
z"/>
<path fill="#000000" opacity="1.000000" stroke="none" 
	d="
M482.667542,424.922302 
	C482.859528,417.159607 487.742828,412.301605 492.404785,407.754852 
	C495.257507,404.972626 498.580597,407.273712 500.996124,409.977936 
	C511.521912,421.761932 522.059082,433.535767 532.605774,445.301086 
	C535.270447,448.273682 537.890503,451.295227 540.696838,454.130096 
	C546.920471,460.417023 547.838196,467.836365 545.119019,475.788177 
	C542.431030,483.648956 539.323914,491.369110 536.293335,499.108887 
	C535.048157,502.288910 533.349304,505.117249 529.317017,505.311371 
	C525.305908,505.504547 523.407349,502.918610 521.750916,499.862793 
	C509.625977,477.494598 497.478729,455.138519 485.348236,432.773315 
	C484.082397,430.439423 482.670105,428.146606 482.667542,424.922302 
z"/>
</svg>